# xmcd
#
# Track frame offsets:
#   150
#   21502
#   34962
#   47746
#   58523
#   67424
#   81562
#   93689
#   109858
#   122808
#   140360
#   156495
#   172505
#   182412
#   193938
#   207531
#   222424
#   235830
#
# Disc length: 3340 seconds
#
# Revision: 0
# Processed by: cddbd v1.5.2PL0 Copyright (c) Steve Scherf et al.
# Submitted via: uFREEDB ActiveX Control 1.5
#
DISCID=170d0a12
DTITLE=VELHO MILONGUEIRO - MEGA SUCESSOS VOL 1
DYEAR=1900
DGENRE=COUNTRY
TTITLE0=É MENTIRA DESSES LOCO
TTITLE1=P.C.
TTITLE2=SOLTANDO A ROUQUIDÃO
TTITLE3=METENDO O PAU
TTITLE4=TO FICANDO VELHO
TTITLE5=BRINCANDO DE RICO
TTITLE6=MARIA GASOLINA
TTITLE7=SEIS NAMORADAS
TTITLE8=VERSINHOS DE ANTIGAMENTE
TTITLE9=NAMORO DE PEÃO
TTITLE10=DOIS PATAQUEIROS
TTITLE11=DÁ O RIQUINHO PRA MIM
TTITLE12=A MARÉ NÃO TÁ PRA PEIXE
TTITLE13=FERRO VELHO
TTITLE14=ROUBO DE PRENDA
TTITLE15=URUCUBACA
TTITLE16=GINETEANDO
TTITLE17=TANTO A PÉ COMO A CAVALO
EXTD=
EXTT0=
EXTT1=
EXTT2=
EXTT3=
EXTT4=
EXTT5=
EXTT6=
EXTT7=
EXTT8=
EXTT9=
EXTT10=
EXTT11=
EXTT12=
EXTT13=
EXTT14=
EXTT15=
EXTT16=
EXTT17=
PLAYORDER=
